<svg
          width="586"
          height="109"
          viewBox="0 0 586 109"
          fill="none"
          xmlns="http://www.w3.org/2000/svg"
        >
          <path
            d="M31.2915 88.6345C26.5703 88.6345 22.181 87.9706 18.1236 86.6427C14.14 85.2411 10.6729 83.2862 7.72207 80.778C4.77128 78.2698 2.52129 75.3559 0.972127 72.0363C0.381968 70.8559 0.345083 69.7863 0.861473 68.8273C1.45163 67.7945 2.41064 67.0937 3.7385 66.7248C4.77128 66.4298 5.76717 66.5404 6.72618 67.0568C7.75895 67.5732 8.53354 68.3478 9.04993 69.3805C10.1565 71.5199 11.7794 73.4379 13.9187 75.1346C16.0581 76.8313 18.6031 78.1592 21.5539 79.1182C24.5047 80.0034 27.7506 80.446 31.2915 80.446C35.2013 80.446 38.6685 79.819 41.6931 78.5649C44.7177 77.237 47.0783 75.3559 48.775 72.9215C50.5455 70.4133 51.4307 67.3888 51.4307 63.8478C51.4307 59.3478 49.7709 55.4749 46.4512 52.2291C43.1316 48.9832 37.9308 46.9176 30.8489 46.0324C22.2178 44.9996 15.4679 42.3439 10.5991 38.0652C5.73028 33.7128 3.29588 28.4014 3.29588 22.131C3.29588 17.631 4.4762 13.7212 6.83683 10.4015C9.27124 7.0819 12.5909 4.53684 16.7958 2.76637C21.0006 0.922122 25.8326 0 31.2915 0C35.3489 0 39.0374 0.663927 42.357 1.99178C45.6767 3.24587 48.5537 4.94258 50.9881 7.0819C53.4963 9.14746 55.5249 11.4343 57.0741 13.9425C57.8118 15.1228 58.0331 16.2662 57.738 17.3728C57.5167 18.4793 56.8897 19.3277 55.8569 19.9179C54.7504 20.4342 53.6069 20.508 52.4266 20.1392C51.3201 19.7703 50.4717 19.0695 49.8815 18.0367C48.775 16.34 47.3734 14.754 45.6767 13.2786C44.0537 11.7294 42.0619 10.5122 39.7013 9.62696C37.3407 8.74172 34.5005 8.26222 31.1809 8.18845C25.3531 8.18845 20.6687 9.44254 17.1277 11.9507C13.5868 14.3851 11.8163 17.963 11.8163 22.6842C11.8163 25.1924 12.4802 27.5162 13.8081 29.6555C15.1359 31.721 17.3122 33.5284 20.3367 35.0776C23.4351 36.553 27.5662 37.6595 32.7301 38.3972C41.9513 39.7251 48.775 42.5652 53.2012 46.9176C57.7012 51.1963 59.9511 56.8028 59.9511 63.7372C59.9511 67.7207 59.2134 71.2617 57.738 74.36C56.3364 77.4583 54.3077 80.0772 51.652 82.2165C49.0701 84.2821 46.0086 85.8681 42.4677 86.9747C39.0005 88.0812 35.2751 88.6345 31.2915 88.6345Z"
            fill="white"
          />
          <path
            d="M104.446 88.0812C98.5449 88.0812 93.2703 86.7533 88.6228 84.0976C83.9753 81.4419 80.3237 77.7903 77.668 73.1428C75.0123 68.4953 73.6844 63.2208 73.6844 57.3192C73.6844 51.3438 75.0123 46.0324 77.668 41.3849C80.3237 36.7374 83.9753 33.0858 88.6228 30.4301C93.2703 27.7743 98.5449 26.4465 104.446 26.4465C110.348 26.4465 115.586 27.7743 120.159 30.4301C124.807 33.0858 128.459 36.7374 131.114 41.3849C133.77 46.0324 135.135 51.3438 135.208 57.3192C135.208 63.2208 133.844 68.4953 131.114 73.1428C128.459 77.7903 124.807 81.4419 120.159 84.0976C115.586 86.7533 110.348 88.0812 104.446 88.0812ZM104.446 80.3354C108.725 80.3354 112.561 79.3395 115.955 77.3477C119.348 75.3559 122.004 72.6264 123.922 69.1592C125.84 65.6921 126.799 61.7454 126.799 57.3192C126.799 52.893 125.84 48.9463 123.922 45.4791C122.004 41.9382 119.348 39.1718 115.955 37.18C112.561 35.1882 108.725 34.1923 104.446 34.1923C100.168 34.1923 96.3318 35.1882 92.9384 37.18C89.5449 39.1718 86.8523 41.9382 84.8606 45.4791C82.9426 48.9463 81.9835 52.893 81.9835 57.3192C81.9835 61.7454 82.9426 65.6921 84.8606 69.1592C86.8523 72.6264 89.5449 75.3559 92.9384 77.3477C96.3318 79.3395 100.168 80.3354 104.446 80.3354Z"
            fill="white"
          />
          <path
            d="M178.78 88.0812C172.952 88.0812 167.751 86.7533 163.177 84.0976C158.677 81.3681 155.1 77.6797 152.444 73.0322C149.862 68.3847 148.571 63.147 148.571 57.3192C148.571 51.4176 149.825 46.143 152.333 41.4955C154.841 36.848 158.272 33.1964 162.624 30.5407C166.977 27.8112 171.993 26.4465 177.673 26.4465C182.173 26.4465 186.304 27.3317 190.066 29.1022C193.902 30.8727 197.259 33.5284 200.136 37.0693C200.948 37.9546 201.243 38.9136 201.021 39.9464C200.8 40.9054 200.173 41.7537 199.14 42.4914C198.329 43.0816 197.407 43.3029 196.374 43.1554C195.415 42.9341 194.566 42.3808 193.829 41.4955C189.55 36.6267 184.165 34.1923 177.673 34.1923C173.542 34.1923 169.89 35.1882 166.718 37.18C163.62 39.1718 161.186 41.9013 159.415 45.3685C157.718 48.8356 156.87 52.8192 156.87 57.3192C156.87 61.7454 157.792 65.6921 159.636 69.1592C161.481 72.6264 164.063 75.3559 167.382 77.3477C170.702 79.3395 174.501 80.3354 178.78 80.3354C181.657 80.3354 184.276 79.9665 186.636 79.2288C189.071 78.4174 191.21 77.2001 193.054 75.5772C193.939 74.8395 194.862 74.4338 195.821 74.36C196.78 74.2862 197.665 74.5813 198.476 75.2452C199.361 76.0567 199.841 76.9788 199.915 78.0116C200.062 79.0444 199.73 79.9296 198.919 80.6673C193.534 85.6099 186.821 88.0812 178.78 88.0812Z"
            fill="white"
          />
          <path
            d="M223.675 87.5279C222.347 87.5279 221.278 87.1591 220.466 86.4214C219.729 85.6099 219.36 84.5403 219.36 83.2124V31.3153C219.36 29.9874 219.729 28.9547 220.466 28.217C221.278 27.4055 222.347 26.9998 223.675 26.9998C224.929 26.9998 225.925 27.4055 226.663 28.217C227.474 28.9547 227.88 29.9874 227.88 31.3153V83.2124C227.88 84.5403 227.474 85.6099 226.663 86.4214C225.925 87.1591 224.929 87.5279 223.675 87.5279ZM223.565 15.4917C221.942 15.4917 220.54 14.9015 219.36 13.7212C218.179 12.5409 217.589 11.1024 217.589 9.40565C217.589 7.56141 218.179 6.1229 219.36 5.09011C220.614 3.98357 222.052 3.43029 223.675 3.43029C225.224 3.43029 226.589 3.98357 227.769 5.09011C229.024 6.1229 229.651 7.56141 229.651 9.40565C229.651 11.1024 229.06 12.5409 227.88 13.7212C226.7 14.9015 225.261 15.4917 223.565 15.4917Z"
            fill="white"
          />
          <path
            d="M276.243 88.0812C270.563 88.0812 265.473 86.7533 260.973 84.0976C256.473 81.3681 252.895 77.6797 250.239 73.0322C247.657 68.3847 246.366 63.147 246.366 57.3192C246.366 51.4176 247.694 46.143 250.35 41.4955C253.079 36.848 256.768 33.1964 261.415 30.5407C266.063 27.8112 271.301 26.4465 277.128 26.4465C282.956 26.4465 288.157 27.8112 292.731 30.5407C297.378 33.1964 301.03 36.848 303.686 41.4955C306.415 46.143 307.817 51.4176 307.89 57.3192L304.46 59.9749C304.46 65.2863 303.206 70.0814 300.698 74.36C298.264 78.5649 294.907 81.9214 290.628 84.4296C286.423 86.864 281.628 88.0812 276.243 88.0812ZM277.128 80.3354C281.407 80.3354 285.206 79.3395 288.526 77.3477C291.919 75.3559 294.575 72.6264 296.493 69.1592C298.485 65.6183 299.481 61.6716 299.481 57.3192C299.481 52.893 298.485 48.9463 296.493 45.4791C294.575 42.0119 291.919 39.2824 288.526 37.2907C285.206 35.2251 281.407 34.1923 277.128 34.1923C272.924 34.1923 269.124 35.2251 265.731 37.2907C262.338 39.2824 259.645 42.0119 257.653 45.4791C255.661 48.9463 254.666 52.893 254.666 57.3192C254.666 61.6716 255.661 65.6183 257.653 69.1592C259.645 72.6264 262.338 75.3559 265.731 77.3477C269.124 79.3395 272.924 80.3354 277.128 80.3354ZM303.575 87.5279C302.321 87.5279 301.288 87.1591 300.477 86.4214C299.665 85.6099 299.259 84.5771 299.259 83.3231V64.4011L301.362 55.6594L307.89 57.3192V83.3231C307.89 84.5771 307.485 85.6099 306.673 86.4214C305.862 87.1591 304.829 87.5279 303.575 87.5279Z"
            fill="white"
          />
          <path
            d="M337.519 87.5279C334.568 87.5279 331.913 86.7165 329.552 85.0935C327.265 83.4706 325.458 81.2206 324.13 78.3436C322.876 75.4666 322.249 72.1469 322.249 68.3847V5.31143C322.249 4.05734 322.618 3.06144 323.355 2.32375C324.167 1.51228 325.2 1.10655 326.454 1.10655C327.708 1.10655 328.704 1.51228 329.441 2.32375C330.253 3.06144 330.659 4.05734 330.659 5.31143V68.3847C330.659 71.5568 331.286 74.1387 332.54 76.1305C333.868 78.1223 335.527 79.1182 337.519 79.1182H340.286C341.392 79.1182 342.277 79.5239 342.941 80.3354C343.605 81.0731 343.937 82.069 343.937 83.3231C343.937 84.5771 343.458 85.6099 342.499 86.4214C341.613 87.1591 340.433 87.5279 338.958 87.5279H337.519Z"
            fill="white"
          />
          <path
            d="M395.638 88.6345C389.663 88.6345 384.056 87.491 378.818 85.2042C373.655 82.9173 369.081 79.7452 365.097 75.6879C361.187 71.5568 358.126 66.8355 355.913 61.5241C353.7 56.1389 352.593 50.3848 352.593 44.2619C352.593 38.2128 353.663 32.5325 355.802 27.2211C358.015 21.8359 361.077 17.1146 364.987 13.0573C368.97 8.99992 373.544 5.82781 378.708 3.54095C383.945 1.18032 389.589 0 395.638 0C400.949 0 405.781 0.774582 410.134 2.32375C414.486 3.87292 418.691 6.34421 422.748 9.73762C423.412 10.254 423.781 10.881 423.855 11.6187C424.003 12.2827 423.929 12.9466 423.634 13.6105C423.339 14.2007 422.896 14.6433 422.306 14.9384C422.158 15.5286 421.789 15.9712 421.199 16.2662C420.609 16.5613 419.908 16.672 419.097 16.5982C418.359 16.5244 417.621 16.1925 416.884 15.6023C414.007 13.0941 410.871 11.2499 407.478 10.0696C404.085 8.8155 400.138 8.18845 395.638 8.18845C390.843 8.18845 386.343 9.14746 382.138 11.0655C378.007 12.9835 374.355 15.6023 371.183 18.922C368.011 22.2416 365.503 26.0776 363.659 30.4301C361.888 34.7825 361.003 39.3931 361.003 44.2619C361.003 49.2783 361.888 53.9627 363.659 58.3151C365.503 62.6675 368.011 66.5035 371.183 69.8232C374.355 73.1428 378.007 75.7616 382.138 77.6796C386.343 79.5239 390.843 80.446 395.638 80.446C399.695 80.446 403.531 79.7821 407.146 78.4542C410.761 77.1264 414.191 75.2084 417.437 72.7002C418.322 71.9625 419.244 71.6674 420.203 71.8149C421.236 71.9625 422.121 72.4051 422.859 73.1428C423.597 73.8805 423.966 74.8395 423.966 76.0198C423.966 76.61 423.855 77.1633 423.634 77.6796C423.486 78.1223 423.191 78.6018 422.748 79.1182C418.986 82.5854 414.781 85.0566 410.134 86.532C405.486 87.9337 400.654 88.6345 395.638 88.6345Z"
            fill="white"
          />
          <path
            d="M463.64 88.0812C457.664 88.0812 452.353 86.7902 447.705 84.2083C443.132 81.5526 439.517 77.901 436.861 73.2535C434.279 68.606 432.988 63.2945 432.988 57.3192C432.988 51.27 434.206 45.9586 436.64 41.3849C439.148 36.7374 442.578 33.0858 446.931 30.4301C451.283 27.7743 456.3 26.4465 461.98 26.4465C467.586 26.4465 472.455 27.7375 476.586 30.3194C480.791 32.8276 484.037 36.3317 486.324 40.8316C488.611 45.3316 489.754 50.4586 489.754 56.2126C489.754 57.3929 489.385 58.352 488.648 59.0897C487.91 59.7536 486.951 60.0855 485.771 60.0855H438.742V53.0036H486.656L481.898 56.4339C481.971 52.1553 481.197 48.3193 479.574 44.9258C477.951 41.5324 475.627 38.8767 472.603 36.9587C469.652 35.0407 466.111 34.0817 461.98 34.0817C457.775 34.0817 454.086 35.0776 450.914 37.0693C447.742 39.0611 445.271 41.8275 443.5 45.3685C441.804 48.8356 440.955 52.8192 440.955 57.3192C440.955 61.8191 441.914 65.8027 443.832 69.2699C445.824 72.7371 448.517 75.4666 451.91 77.4583C455.304 79.4501 459.214 80.446 463.64 80.446C466.295 80.446 468.951 80.0034 471.607 79.1182C474.336 78.1592 476.513 76.9788 478.135 75.5772C478.947 74.9133 479.869 74.5813 480.902 74.5813C481.935 74.5076 482.82 74.7657 483.558 75.3559C484.517 76.2411 484.996 77.2001 484.996 78.2329C485.07 79.2657 484.664 80.1509 483.779 80.8886C481.344 82.9542 478.246 84.6878 474.484 86.0894C470.722 87.4173 467.107 88.0812 463.64 88.0812Z"
            fill="white"
          />
          <path
            d="M507.709 50.2373C507.93 45.6635 509.11 41.5693 511.25 37.9546C513.463 34.3399 516.303 31.4997 519.77 29.4342C523.311 27.3686 527.221 26.3358 531.5 26.3358C534.893 26.3358 537.512 26.8153 539.356 27.7743C541.2 28.7334 541.901 30.135 541.459 31.9792C541.163 33.0858 540.647 33.8235 539.909 34.1923C539.245 34.5612 538.397 34.7087 537.364 34.6349C536.405 34.5612 535.299 34.4874 534.045 34.4136C529.914 34.0448 526.225 34.4874 522.979 35.7415C519.807 36.9218 517.262 38.7661 515.344 41.2742C513.5 43.7824 512.578 46.7701 512.578 50.2373H507.709ZM508.373 87.5279C507.045 87.5279 506.012 87.1591 505.274 86.4214C504.537 85.6837 504.168 84.6509 504.168 83.3231V31.2046C504.168 29.8768 504.537 28.844 505.274 28.1063C506.012 27.3686 507.045 26.9998 508.373 26.9998C509.701 26.9998 510.733 27.3686 511.471 28.1063C512.209 28.844 512.578 29.8768 512.578 31.2046V83.3231C512.578 84.6509 512.209 85.6837 511.471 86.4214C510.733 87.1591 509.701 87.5279 508.373 87.5279Z"
            fill="white"
          />
          <path
            d="M578.529 87.5279C574.619 87.5279 571.115 86.6058 568.017 84.7616C564.992 82.9173 562.594 80.4091 560.824 77.237C559.054 73.9912 558.168 70.3027 558.168 66.1716V12.0614C558.168 10.8073 558.537 9.7745 559.275 8.96303C560.086 8.15157 561.119 7.74583 562.373 7.74583C563.627 7.74583 564.66 8.15157 565.471 8.96303C566.283 9.7745 566.689 10.8073 566.689 12.0614V66.1716C566.689 69.9338 567.795 73.0322 570.008 75.4666C572.221 77.8272 575.062 79.0075 578.529 79.0075H581.516C582.697 79.0075 583.656 79.4132 584.393 80.2247C585.131 81.0362 585.5 82.069 585.5 83.3231C585.5 84.5771 585.057 85.6099 584.172 86.4214C583.287 87.1591 582.18 87.5279 580.852 87.5279H578.529ZM550.976 36.6267C549.869 36.6267 548.947 36.2948 548.209 35.6308C547.472 34.8931 547.103 34.0079 547.103 32.9751C547.103 31.8686 547.472 30.9833 548.209 30.3194C548.947 29.5817 549.869 29.2129 550.976 29.2129H579.193C580.299 29.2129 581.221 29.5817 581.959 30.3194C582.697 30.9833 583.066 31.8686 583.066 32.9751C583.066 34.0079 582.697 34.8931 581.959 35.6308C581.221 36.2948 580.299 36.6267 579.193 36.6267H550.976Z"
            fill="white"
          />
          <path
            d="M373.583 80.612V106.64L394.277 87.9276L415.079 106.64V80.6121C398.28 87.2104 389.25 87.3232 373.583 80.612Z"
            fill="white"
            stroke="white"
            stroke-width="4"
            stroke-linecap="round"
            stroke-linejoin="round"
          />
        </svg>