<svg width="529" height="73" viewBox="0 0 529 73" fill="none" xmlns="http://www.w3.org/2000/svg">
<path d="M7.56641 1.54756V71.4476H0.566407V1.54756H7.56641ZM44.118 1.54756C51.8513 1.54756 58.4846 2.94757 64.018 5.74757C69.5513 8.54757 73.7846 12.5809 76.718 17.8476C79.6513 23.1142 81.118 29.3809 81.118 36.6476C81.118 43.8476 79.6513 50.0809 76.718 55.3476C73.7846 60.5476 69.5513 64.5476 64.018 67.3476C58.4846 70.0809 51.8513 71.4476 44.118 71.4476H23.418V1.54756H44.118ZM44.118 65.6476C53.8513 65.6476 61.2513 63.1142 66.318 58.0476C71.4513 52.9142 74.018 45.7809 74.018 36.6476C74.018 27.4476 71.4513 20.2809 66.318 15.1476C61.2513 9.94757 53.8513 7.34757 44.118 7.34757H30.418V65.6476H44.118ZM101.023 7.24757V33.3476H127.523V39.1476H101.023V65.6476H130.523V71.4476H94.0234V1.44757H130.523V7.24757H101.023ZM197.016 71.4476H190.016L151.316 12.6476V71.4476H144.316V1.54756H151.316L190.016 60.2476V1.54756H197.016V71.4476ZM253.771 1.54756V7.34757H234.371V71.4476H227.371V7.34757H207.871V1.54756H253.771ZM271.824 1.54756V71.4476H264.824V1.54756H271.824ZM283.176 36.4476C283.176 29.5809 284.709 23.4476 287.776 18.0476C290.909 12.5809 295.142 8.34757 300.476 5.34757C305.876 2.2809 311.909 0.747569 318.576 0.747569C326.376 0.747569 333.209 2.74757 339.076 6.74757C344.942 10.7476 349.042 16.2809 351.376 23.3476H335.276C333.676 20.0142 331.409 17.5142 328.476 15.8476C325.609 14.1809 322.276 13.3476 318.476 13.3476C314.409 13.3476 310.776 14.3142 307.576 16.2476C304.442 18.1142 301.976 20.7809 300.176 24.2476C298.442 27.7142 297.576 31.7809 297.576 36.4476C297.576 41.0476 298.442 45.1142 300.176 48.6476C301.976 52.1142 304.442 54.8142 307.576 56.7476C310.776 58.6142 314.409 59.5476 318.476 59.5476C322.276 59.5476 325.609 58.7142 328.476 57.0476C331.409 55.3142 333.676 52.7809 335.276 49.4476H351.376C349.042 56.5809 344.942 62.1476 339.076 66.1476C333.276 70.0809 326.442 72.0476 318.576 72.0476C311.909 72.0476 305.876 70.5476 300.476 67.5476C295.142 64.4809 290.909 60.2476 287.776 54.8476C284.709 49.4476 283.176 43.3142 283.176 36.4476ZM377.334 12.9476V30.4476H400.834V41.5476H377.334V60.0476H403.834V71.4476H363.334V1.54756H403.834V12.9476H377.334ZM452.556 71.4476L437.156 44.2476H430.556V71.4476H416.556V1.64757H442.756C448.156 1.64757 452.756 2.61424 456.556 4.54757C460.356 6.41423 463.19 8.9809 465.056 12.2476C466.99 15.4476 467.956 19.0476 467.956 23.0476C467.956 27.6476 466.623 31.8142 463.956 35.5476C461.29 39.2142 457.323 41.7476 452.056 43.1476L468.756 71.4476H452.556ZM430.556 33.7476H442.256C446.056 33.7476 448.89 32.8476 450.756 31.0476C452.623 29.1809 453.556 26.6142 453.556 23.3476C453.556 20.1476 452.623 17.6809 450.756 15.9476C448.89 14.1476 446.056 13.2476 442.256 13.2476H430.556V33.7476ZM528.119 1.64757V12.9476H509.519V71.4476H495.519V12.9476H476.919V1.64757H528.119Z" fill="#F3F3F3"/>
</svg>
